<svg version="1" xmlns="http://www.w3.org/2000/svg" width="682.667" height="682.667" viewBox="0 0 512.000000 512.000000"><path d="M36.5 107.7c-9.9 3.6-17 10.2-21.8 20.3l-3 6.5-.1 122c-.2 131-.3 128.2 4.9 137.1 3.3 5.7 10.7 12.1 17.3 15.2 7.9 3.6 21.2 3.7 28.7.2 9.8-4.6 15.9-11 20-21 1.7-4.1 1.9-8.1 2-45.3l.2-40.7 2.3-2.5c4.8-5.1 13.1-7.3 20.5-5.3 4.7 1.2 11.8 8.1 18.3 17.8 15.8 23.5 61 87.2 64.3 90.7 6.3 6.4 11.8 8.6 21.4 8.6 9.9 0 16.2-2.8 22.4-10 9.6-11.2 10.6-25.5 2.7-37.3-2.2-3.3-15.7-23.9-30.4-46.5-3.6-5.5-11.3-17.2-17-26-27.5-41.9-28.3-43.7-27.7-57 .5-12.1 1.2-13.5 22-46.8 26-41.5 24.7-39 25.1-48.2.3-6.3 0-7.7-3.1-14-5.9-12.4-14.3-17.5-27.9-17.1-9.6.3-15.2 2.5-20.7 8.3-2 2.1-14.8 19.3-28.4 38.3-29.5 41-34.2 47.3-36 48.3-2.1 1.1-6.2-.9-7.1-3.5-.4-1.2-.8-16.5-.9-33.8-.2-30.4-.3-31.7-2.5-37.5-2.8-7.3-11.1-16-18.5-19.4-6.9-3.3-19.9-3.9-27-1.4zM288 107.7c-6.1 1.5-11.6 4.9-15.8 9.7-4.5 5.1-6.1 8.7-7 15.3-.4 3.2-.7 61.4-.6 129.3 0 96.1.3 124.6 1.3 128 1.8 6.5 5.9 12 12.1 16.2 9.5 6.4 11.4 6.6 42.5 5.4 9.4-.4 25.1-.9 35-1.1 17.4-.5 32.8-1.2 39-1.9 1.7-.2 5.7-.7 9-1 3.3-.4 7.1-.9 8.5-1.2 1.4-.2 3.9-.7 5.5-1 3.4-.5 12.8-2.3 16.3-3 11.9-2.4 30.8-10.7 39.7-17.4 12.6-9.4 23.8-24.2 28.3-37.2 4-11.4 4.7-30.6 1.8-44.3-3.4-15.7-13.6-30.3-27.2-39.1-3.2-2.1-9.9-5.5-14.9-7.5-7.1-2.8-9.3-4.2-10.4-6.4-1.9-4-.1-7 6.4-10.5 20.6-11 32-24.1 36.1-41.6 1.2-5 1.5-9.8 1.1-17.4-.7-16.3-5.7-28.9-15.9-40.5-11.9-13.6-38.7-25.2-67.3-29-2.2-.3-4.9-.7-6-1-1.1-.2-5.8-.7-10.5-1-4.7-.4-11-.8-14-1.1-3-.2-21.2-.7-40.5-1-19.2-.3-37.8-.6-41.3-.8-3.4-.1-8.5.4-11.2 1.1zm96.5 47.3c13.9 3.6 21.4 9.3 26.7 20.6 3.2 6.7 3.3 7.3 3.3 19.9 0 12.2-.2 13.3-2.8 18.7-7.1 14.4-24.6 20.9-55 20.5l-14.9-.2-2.4-3-2.4-3v-34.6c0-33.2.1-34.7 2-37.2 2.5-3.1 3.7-3.3 22.8-3.5 12 0 17 .3 22.7 1.8zm-9.3 117.4c11.3.8 18.4 2.2 26.3 5.2 1.1.4 2.2.8 2.5.8 3.1.7 11 5.9 14.2 9.4 7.2 7.8 10.7 20 10.3 35.1-.5 17.5-7.2 28.9-20.8 35.6-13.1 6.4-23.1 8-46.9 7.9-18.2-.1-20.9-.8-22.8-6-.6-1.5-1-19.2-1-41.5 0-42.6.1-43.5 5.7-45.7 4.8-1.9 13.3-2.1 32.5-.8z"/></svg>